<mxfile host="app.diagrams.net" modified="2024-05-23T18:11:53.410Z" agent="Mozilla/5.0 (Macintosh; Intel Mac OS X 10_15_7) AppleWebKit/537.36 (KHTML, like Gecko) Chrome/124.0.0.0 Safari/537.36" etag="Dp1cEjgQuzE6Q04d6WnT" version="24.4.6" type="google">
  <diagram name="Page-1" id="yUKo1Lw2Mynkebe7PPx9">
    <mxGraphModel grid="1" page="1" gridSize="10" guides="1" tooltips="1" connect="1" arrows="1" fold="1" pageScale="1" pageWidth="850" pageHeight="1100" math="0" shadow="0">
      <root>
        <mxCell id="0" />
        <mxCell id="1" parent="0" />
        <mxCell id="-SW9mtwKp5-wyLf88P_i-21" style="edgeStyle=orthogonalEdgeStyle;rounded=0;orthogonalLoop=1;jettySize=auto;html=1;exitX=1;exitY=0.5;exitDx=0;exitDy=0;" edge="1" parent="1" source="-SW9mtwKp5-wyLf88P_i-1" target="-SW9mtwKp5-wyLf88P_i-13">
          <mxGeometry relative="1" as="geometry" />
        </mxCell>
        <mxCell id="-SW9mtwKp5-wyLf88P_i-22" value="Faz a requisição" style="edgeLabel;html=1;align=center;verticalAlign=middle;resizable=0;points=[];" connectable="0" vertex="1" parent="-SW9mtwKp5-wyLf88P_i-21">
          <mxGeometry x="-0.432" y="1" relative="1" as="geometry">
            <mxPoint as="offset" />
          </mxGeometry>
        </mxCell>
        <mxCell id="-SW9mtwKp5-wyLf88P_i-1" value="Aplicativo" style="whiteSpace=wrap;html=1;aspect=fixed;" vertex="1" parent="1">
          <mxGeometry x="100" y="280" width="80" height="80" as="geometry" />
        </mxCell>
        <mxCell id="-SW9mtwKp5-wyLf88P_i-5" style="edgeStyle=orthogonalEdgeStyle;rounded=0;orthogonalLoop=1;jettySize=auto;html=1;entryX=0;entryY=0.5;entryDx=0;entryDy=0;startArrow=classic;startFill=1;" edge="1" parent="1" source="-SW9mtwKp5-wyLf88P_i-2" target="-SW9mtwKp5-wyLf88P_i-4">
          <mxGeometry relative="1" as="geometry" />
        </mxCell>
        <mxCell id="-SW9mtwKp5-wyLf88P_i-2" value="Banco de dados" style="shape=cylinder3;whiteSpace=wrap;html=1;boundedLbl=1;backgroundOutline=1;size=15;" vertex="1" parent="1">
          <mxGeometry x="130" y="80" width="60" height="80" as="geometry" />
        </mxCell>
        <mxCell id="-SW9mtwKp5-wyLf88P_i-3" style="edgeStyle=orthogonalEdgeStyle;rounded=0;orthogonalLoop=1;jettySize=auto;html=1;entryX=0;entryY=0.5;entryDx=0;entryDy=0;entryPerimeter=0;" edge="1" parent="1" source="-SW9mtwKp5-wyLf88P_i-1" target="-SW9mtwKp5-wyLf88P_i-2">
          <mxGeometry relative="1" as="geometry">
            <Array as="points">
              <mxPoint x="80" y="320" />
              <mxPoint x="80" y="180" />
              <mxPoint x="90" y="180" />
              <mxPoint x="90" y="120" />
            </Array>
          </mxGeometry>
        </mxCell>
        <mxCell id="-SW9mtwKp5-wyLf88P_i-30" value="Alimenta o DB com os&amp;nbsp;&lt;div&gt;dados históricos&lt;/div&gt;" style="edgeLabel;html=1;align=center;verticalAlign=middle;resizable=0;points=[];" connectable="0" vertex="1" parent="-SW9mtwKp5-wyLf88P_i-3">
          <mxGeometry x="-0.2296" y="3" relative="1" as="geometry">
            <mxPoint x="1" as="offset" />
          </mxGeometry>
        </mxCell>
        <mxCell id="-SW9mtwKp5-wyLf88P_i-8" style="edgeStyle=orthogonalEdgeStyle;rounded=0;orthogonalLoop=1;jettySize=auto;html=1;exitX=1;exitY=0.5;exitDx=0;exitDy=0;entryX=0;entryY=0.5;entryDx=0;entryDy=0;" edge="1" parent="1" source="-SW9mtwKp5-wyLf88P_i-4" target="-SW9mtwKp5-wyLf88P_i-6">
          <mxGeometry relative="1" as="geometry" />
        </mxCell>
        <mxCell id="-SW9mtwKp5-wyLf88P_i-4" value="Treinamento do modelo" style="rounded=1;whiteSpace=wrap;html=1;" vertex="1" parent="1">
          <mxGeometry x="260" y="70" width="120" height="60" as="geometry" />
        </mxCell>
        <mxCell id="-SW9mtwKp5-wyLf88P_i-11" style="edgeStyle=orthogonalEdgeStyle;rounded=0;orthogonalLoop=1;jettySize=auto;html=1;exitX=1;exitY=0.5;exitDx=0;exitDy=0;entryX=1;entryY=0.5;entryDx=0;entryDy=0;" edge="1" parent="1" source="-SW9mtwKp5-wyLf88P_i-6" target="-SW9mtwKp5-wyLf88P_i-9">
          <mxGeometry relative="1" as="geometry" />
        </mxCell>
        <mxCell id="-SW9mtwKp5-wyLf88P_i-6" value="Registry do modelo" style="rounded=1;whiteSpace=wrap;html=1;" vertex="1" parent="1">
          <mxGeometry x="450" y="100" width="120" height="60" as="geometry" />
        </mxCell>
        <mxCell id="-SW9mtwKp5-wyLf88P_i-9" value="Réplica 1" style="ellipse;whiteSpace=wrap;html=1;aspect=fixed;" vertex="1" parent="1">
          <mxGeometry x="600" y="290" width="50" height="50" as="geometry" />
        </mxCell>
        <mxCell id="-SW9mtwKp5-wyLf88P_i-12" style="edgeStyle=orthogonalEdgeStyle;rounded=0;orthogonalLoop=1;jettySize=auto;html=1;exitX=1;exitY=0.5;exitDx=0;exitDy=0;startArrow=classic;startFill=1;endArrow=none;endFill=0;" edge="1" parent="1" source="-SW9mtwKp5-wyLf88P_i-10" target="-SW9mtwKp5-wyLf88P_i-6">
          <mxGeometry relative="1" as="geometry">
            <Array as="points">
              <mxPoint x="670" y="385" />
              <mxPoint x="670" y="130" />
            </Array>
          </mxGeometry>
        </mxCell>
        <mxCell id="-SW9mtwKp5-wyLf88P_i-10" value="Réplica n" style="ellipse;whiteSpace=wrap;html=1;aspect=fixed;" vertex="1" parent="1">
          <mxGeometry x="600" y="360" width="50" height="50" as="geometry" />
        </mxCell>
        <mxCell id="-SW9mtwKp5-wyLf88P_i-14" style="edgeStyle=orthogonalEdgeStyle;rounded=0;orthogonalLoop=1;jettySize=auto;html=1;entryX=0;entryY=0.5;entryDx=0;entryDy=0;" edge="1" parent="1" source="-SW9mtwKp5-wyLf88P_i-13" target="-SW9mtwKp5-wyLf88P_i-9">
          <mxGeometry relative="1" as="geometry" />
        </mxCell>
        <mxCell id="-SW9mtwKp5-wyLf88P_i-15" style="edgeStyle=orthogonalEdgeStyle;rounded=0;orthogonalLoop=1;jettySize=auto;html=1;exitX=1;exitY=0.5;exitDx=0;exitDy=0;entryX=0;entryY=0.5;entryDx=0;entryDy=0;" edge="1" parent="1" source="-SW9mtwKp5-wyLf88P_i-13" target="-SW9mtwKp5-wyLf88P_i-10">
          <mxGeometry relative="1" as="geometry" />
        </mxCell>
        <mxCell id="-SW9mtwKp5-wyLf88P_i-23" style="edgeStyle=orthogonalEdgeStyle;rounded=0;orthogonalLoop=1;jettySize=auto;html=1;exitX=0;exitY=0.75;exitDx=0;exitDy=0;entryX=0.25;entryY=1;entryDx=0;entryDy=0;" edge="1" parent="1" source="-SW9mtwKp5-wyLf88P_i-13" target="-SW9mtwKp5-wyLf88P_i-1">
          <mxGeometry relative="1" as="geometry">
            <Array as="points">
              <mxPoint x="400" y="410" />
              <mxPoint x="120" y="410" />
            </Array>
          </mxGeometry>
        </mxCell>
        <mxCell id="-SW9mtwKp5-wyLf88P_i-24" value="Responde a requisição" style="edgeLabel;html=1;align=center;verticalAlign=middle;resizable=0;points=[];" connectable="0" vertex="1" parent="-SW9mtwKp5-wyLf88P_i-23">
          <mxGeometry x="0.12" relative="1" as="geometry">
            <mxPoint as="offset" />
          </mxGeometry>
        </mxCell>
        <mxCell id="-SW9mtwKp5-wyLf88P_i-13" value="Balanceador de Carga" style="rounded=1;whiteSpace=wrap;html=1;" vertex="1" parent="1">
          <mxGeometry x="400" y="320" width="100" height="60" as="geometry" />
        </mxCell>
        <mxCell id="-SW9mtwKp5-wyLf88P_i-17" style="edgeStyle=orthogonalEdgeStyle;rounded=0;orthogonalLoop=1;jettySize=auto;html=1;" edge="1" parent="1" source="-SW9mtwKp5-wyLf88P_i-16" target="-SW9mtwKp5-wyLf88P_i-13">
          <mxGeometry relative="1" as="geometry" />
        </mxCell>
        <mxCell id="-SW9mtwKp5-wyLf88P_i-25" style="edgeStyle=orthogonalEdgeStyle;rounded=0;orthogonalLoop=1;jettySize=auto;html=1;" edge="1" parent="1" source="-SW9mtwKp5-wyLf88P_i-16" target="-SW9mtwKp5-wyLf88P_i-18">
          <mxGeometry relative="1" as="geometry" />
        </mxCell>
        <mxCell id="-SW9mtwKp5-wyLf88P_i-26" value="Notificação em caso de falha" style="edgeLabel;html=1;align=center;verticalAlign=middle;resizable=0;points=[];" connectable="0" vertex="1" parent="-SW9mtwKp5-wyLf88P_i-25">
          <mxGeometry x="-0.1874" y="-2" relative="1" as="geometry">
            <mxPoint as="offset" />
          </mxGeometry>
        </mxCell>
        <mxCell id="-SW9mtwKp5-wyLf88P_i-16" value="Agente externo de monitoramento" style="rounded=1;whiteSpace=wrap;html=1;" vertex="1" parent="1">
          <mxGeometry x="440" y="470" width="120" height="50" as="geometry" />
        </mxCell>
        <mxCell id="-SW9mtwKp5-wyLf88P_i-18" value="Actor" style="shape=umlActor;verticalLabelPosition=bottom;verticalAlign=top;html=1;outlineConnect=0;" vertex="1" parent="1">
          <mxGeometry x="690" y="540" width="30" height="60" as="geometry" />
        </mxCell>
        <mxCell id="-SW9mtwKp5-wyLf88P_i-27" style="edgeStyle=orthogonalEdgeStyle;rounded=0;orthogonalLoop=1;jettySize=auto;html=1;entryX=1;entryY=0.3333333333333333;entryDx=0;entryDy=0;entryPerimeter=0;" edge="1" parent="1" source="-SW9mtwKp5-wyLf88P_i-6" target="-SW9mtwKp5-wyLf88P_i-18">
          <mxGeometry relative="1" as="geometry" />
        </mxCell>
        <mxCell id="-SW9mtwKp5-wyLf88P_i-28" value="Notificação de&amp;nbsp;&lt;div&gt;queda de performance&lt;/div&gt;" style="edgeLabel;html=1;align=center;verticalAlign=middle;resizable=0;points=[];" connectable="0" vertex="1" parent="-SW9mtwKp5-wyLf88P_i-27">
          <mxGeometry x="0.2387" relative="1" as="geometry">
            <mxPoint as="offset" />
          </mxGeometry>
        </mxCell>
      </root>
    </mxGraphModel>
  </diagram>
</mxfile>
